<?xml version="1.0" standalone="no"?>
<!DOCTYPE svg PUBLIC "-//W3C//DTD SVG 20010904//EN"
 "http://www.w3.org/TR/2001/REC-SVG-20010904/DTD/svg10.dtd">
<svg version="1.0" xmlns="http://www.w3.org/2000/svg"
 width="72.000000pt" height="72.000000pt" viewBox="0 0 72.000000 72.000000"
 preserveAspectRatio="xMidYMid meet">
<metadata>
Created by potrace 1.14, written by Peter Selinger 2001-2017
</metadata>
<g transform="translate(0.000000,72.000000) scale(0.100000,-0.100000)"
fill="#000000" stroke="none">
<path d="M365 672 c-83 -9 -107 -23 -196 -113 -49 -49 -88 -92 -87 -96 1 -5
-3 -24 -9 -44 -8 -29 -5 -104 6 -126 1 -2 4 -10 8 -18 3 -9 25 -37 49 -62 23
-26 40 -51 37 -56 -3 -6 -2 -7 4 -4 5 3 21 -5 36 -19 14 -13 31 -24 36 -24 6
0 20 -10 32 -22 12 -13 19 -17 14 -10 -8 16 26 13 37 -3 5 -6 8 -4 8 4 0 11 4
10 16 -5 8 -10 13 -13 9 -7 -3 7 -1 13 4 13 19 0 26 -5 23 -15 -2 -5 6 0 17
12 11 12 31 25 43 29 13 4 30 15 39 25 9 10 19 16 23 12 3 -3 6 -1 6 6 0 7 4
10 9 6 5 -3 13 0 17 6 4 8 3 9 -4 5 -23 -14 -11 5 26 42 72 70 86 99 86 171 0
81 -15 110 -91 188 -85 85 -136 112 -198 105z"/>
<path d="M596 213 c-6 -14 -5 -15 5 -6 7 7 10 15 7 18 -3 3 -9 -2 -12 -12z"/>
</g>
</svg>
